<?xml version="1.0" encoding="utf-8"?>
<!-- Generator: Adobe Illustrator 17.0.0, SVG Export Plug-In . SVG Version: 6.00 Build 0)  -->
<!DOCTYPE svg PUBLIC "-//W3C//DTD SVG 1.1//EN" "http://www.w3.org/Graphics/SVG/1.1/DTD/svg11.dtd">
<svg version="1.1" id="Camada_1" xmlns="http://www.w3.org/2000/svg" xmlns:xlink="http://www.w3.org/1999/xlink" x="0px" y="0px"
	 width="841.89px" height="595.28px" viewBox="0 0 841.89 595.28" enable-background="new 0 0 841.89 595.28" xml:space="preserve">
<g>
	<g>
		<path fill="#389936" d="M487.98,211.755c0,1.091-0.909,2-2,2h-15.821c-1.091,0-2-0.909-2-2v-15.821c0-1.091,0.909-2,2-2h15.821
			c1.091,0,2,0.909,2,2V211.755z"/>
		<g>
			<path fill="#389936" d="M464.34,164.474c0,1.091-0.909,2-2,2h-15.821c-1.091,0-2-0.909-2-2v-16.003c0-1.091,0.909-2,2-2h15.821
				c1.091,0,2,0.909,2,2V164.474z"/>
			<path fill="#389936" d="M487.98,164.474c0,1.091-0.909,2-2,2h-15.821c-1.091,0-2-0.909-2-2v-16.003c0-1.091,0.909-2,2-2h15.821
				c1.091,0,2,0.909,2,2V164.474z"/>
			<path fill="#389936" d="M440.699,188.115c0,1.091-0.909,2-2,2h-15.821c-1.091,0-2-0.909-2-2v-16.003c0-1.091,0.909-2,2-2h15.821
				c1.091,0,2,0.909,2,2V188.115z"/>
			<path fill="#389936" d="M464.34,188.115c0,1.091-0.909,2-2,2h-15.821c-1.091,0-2-0.909-2-2v-16.003c0-1.091,0.909-2,2-2h15.821
				c1.091,0,2,0.909,2,2V188.115z"/>
			<path fill="#389936" d="M440.699,211.755c0,1.091-0.909,2-2,2h-15.821c-1.091,0-2-0.909-2-2v-15.821c0-1.091,0.909-2,2-2h15.821
				c1.091,0,2,0.909,2,2V211.755z"/>
			<path fill="#389936" d="M464.34,211.755c0,1.091-0.909,2-2,2h-15.821c-1.091,0-2-0.909-2-2v-15.821c0-1.091,0.909-2,2-2h15.821
				c1.091,0,2,0.909,2,2V211.755z"/>
			<path fill="#389936" d="M440.699,235.396c0,1.091-0.909,2-2,2h-15.821c-1.091,0-2-0.909-2-2v-15.821c0-1.091,0.909-2,2-2h15.821
				c1.091,0,2,0.909,2,2V235.396z"/>
			<path fill="#389936" d="M464.34,235.396c0,1.091-0.909,2-2,2h-15.821c-1.091,0-2-0.909-2-2v-15.821c0-1.091,0.909-2,2-2h15.821
				c1.091,0,2,0.909,2,2V235.396z"/>
			<path fill="#CA1517" d="M441.608,156.473c0,6.001-4.91,10.911-10.911,10.911c-6.001,0-10.911-4.91-10.911-10.911
				c0-6.001,4.91-10.911,10.911-10.911C436.88,145.562,441.608,150.472,441.608,156.473"/>
			<text transform="matrix(1.0017 0 0 1 499.3574 189.5615)" fill="#281E17" font-family="'OpenSans-Bold'" font-size="27.4886">I</text>
			<text transform="matrix(1.0017 0 0 1 508.4648 189.5615)" fill="#281E17" font-family="'OpenSans-Bold'" font-size="27.4886">NS</text>
			<text transform="matrix(1.0017 0 0 1 546.1738 189.5615)" fill="#281E17" font-family="'OpenSans-Bold'" font-size="27.4886">TIT</text>
			<text transform="matrix(1.0017 0 0 1 587.3398 189.5615)" fill="#281E17" font-family="'OpenSans-Bold'" font-size="27.4886">U</text>
			<text transform="matrix(1.0017 0 0 1 608.1074 189.5615)" fill="#281E17" font-family="'OpenSans-Bold'" font-size="27.4886">T</text>
			<text transform="matrix(1.0017 0 0 1 624.1367 189.5615)" fill="#281E17" font-family="'OpenSans-Bold'" font-size="27.4886">O F</text>
			<text transform="matrix(1.0017 0 0 1 668.4004 189.5615)" fill="#281E17" font-family="'OpenSans-Bold'" font-size="27.4886">EDER</text>
			<text transform="matrix(1.0017 0 0 1 737.9863 189.5615)" fill="#281E17" font-family="'OpenSans-Bold'" font-size="27.4886">A</text>
			<text transform="matrix(1.0017 0 0 1 756.9297 189.5615)" fill="#281E17" font-family="'OpenSans-Bold'" font-size="27.4886">L</text>
			<text transform="matrix(1.0017 0 0 1 499.8633 213.8692)" fill="#281E17" font-family="'OpenSans'" font-size="20.7701">Ceará</text>
			<text transform="matrix(1.0017 0 0 1 499.8633 237.4746)" fill="#281E17" font-family="'OpenSans'" font-size="20.7707">Campus Fortaleza</text>
		</g>
	</g>
</g>
<g>
	<text transform="matrix(1.0017 0 0 1 163.2495 287.1523)" fill="#281E17" font-family="'OpenSans'" font-size="18.8183">Campus</text>
	<text transform="matrix(1.0017 0 0 1 158.9644 308.6416)" fill="#281E17" font-family="'OpenSans'" font-size="18.8183">Fortaleza</text>
	<path fill="#3A9736" d="M272.683,266.141c0,0.321-0.321,0.481-0.641,0.481H126.596c-0.321,0-0.641-0.16-0.641-0.481l0,0
		c0-0.321,0.321-0.481,0.641-0.481h145.445C272.362,265.66,272.683,265.82,272.683,266.141L272.683,266.141z"/>
	<text transform="matrix(1.0017 0 0 1 173.6968 255.5937)" fill="#281E17" font-family="'OpenSans'" font-size="18.8183">Ceará</text>
	<g>
		<path fill="#3A9736" d="M208.219,116.045c0,0.962-0.802,1.764-1.764,1.764h-14.432c-0.962,0-1.764-0.802-1.764-1.764v-14.432
			c0-0.962,0.802-1.764,1.764-1.764h14.432c0.962,0,1.764,0.802,1.764,1.764V116.045z"/>
		<path fill="#3A9736" d="M229.707,116.045c0,0.962-0.802,1.764-1.764,1.764H213.51c-0.962,0-1.764-0.802-1.764-1.764v-14.432
			c0-0.962,0.802-1.764,1.764-1.764h14.432c0.962,0,1.764,0.802,1.764,1.764V116.045z"/>
		<path fill="#3A9736" d="M229.707,159.021c0,0.962-0.802,1.764-1.764,1.764H213.51c-0.962,0-1.764-0.802-1.764-1.764v-14.432
			c0-0.962,0.802-1.764,1.764-1.764h14.432c0.962,0,1.764,0.802,1.764,1.764V159.021z"/>
		<path fill="#3A9736" d="M186.731,137.533c0,0.962-0.802,1.764-1.764,1.764h-14.432c-0.962,0-1.764-0.802-1.764-1.764v-14.432
			c0-0.962,0.802-1.764,1.764-1.764h14.432c0.962,0,1.764,0.802,1.764,1.764V137.533z"/>
		<path fill="#3A9736" d="M208.219,137.533c0,0.962-0.802,1.764-1.764,1.764h-14.432c-0.962,0-1.764-0.802-1.764-1.764v-14.432
			c0-0.962,0.802-1.764,1.764-1.764h14.432c0.962,0,1.764,0.802,1.764,1.764V137.533z"/>
		<path fill="#3A9736" d="M186.731,159.021c0,0.962-0.802,1.764-1.764,1.764h-14.432c-0.962,0-1.764-0.802-1.764-1.764v-14.432
			c0-0.962,0.802-1.764,1.764-1.764h14.432c0.962,0,1.764,0.802,1.764,1.764V159.021z"/>
		<path fill="#3A9736" d="M208.219,159.021c0,0.962-0.802,1.764-1.764,1.764h-14.432c-0.962,0-1.764-0.802-1.764-1.764v-14.432
			c0-0.962,0.802-1.764,1.764-1.764h14.432c0.962,0,1.764,0.802,1.764,1.764V159.021z"/>
		<path fill="#3A9736" d="M186.731,180.509c0,0.962-0.802,1.764-1.764,1.764h-14.432c-0.962,0-1.764-0.802-1.764-1.764v-14.432
			c0-0.962,0.802-1.764,1.764-1.764h14.432c0.962,0,1.764,0.802,1.764,1.764V180.509z"/>
		<path fill="#3A9736" d="M208.219,180.509c0,0.962-0.802,1.764-1.764,1.764h-14.432c-0.962,0-1.764-0.802-1.764-1.764v-14.432
			c0-0.962,0.802-1.764,1.764-1.764h14.432c0.962,0,1.764,0.802,1.764,1.764V180.509z"/>
		<path fill="#CA191A" d="M187.693,108.829c0,5.452-4.33,9.782-9.782,9.782c-5.452,0-9.782-4.33-9.782-9.782
			c0-5.452,4.33-9.782,9.782-9.782C183.203,99.047,187.693,103.377,187.693,108.829"/>
		<text transform="matrix(1.0017 0 0 1 132.2065 212.5908)" fill="#281E17" font-family="'OpenSans-Bold'" font-size="24.9378">I</text>
		<text transform="matrix(1.0017 0 0 1 140.5601 212.5908)" fill="#281E17" font-family="'OpenSans-Bold'" font-size="24.9378">NS</text>
		<text transform="matrix(1.0017 0 0 1 174.6138 212.5908)" fill="#281E17" font-family="'OpenSans-Bold'" font-size="24.9378">TIT</text>
		<text transform="matrix(1.0017 0 0 1 211.8794 212.5908)" fill="#281E17" font-family="'OpenSans-Bold'" font-size="24.9378">U</text>
		<text transform="matrix(1.0017 0 0 1 230.8345 212.5908)" fill="#281E17" font-family="'OpenSans-Bold'" font-size="24.9378">T</text>
		<text transform="matrix(1.0017 0 0 1 245.2905 212.5908)" fill="#281E17" font-family="'OpenSans-Bold'" font-size="24.9378">O</text>
		<text transform="matrix(1.0017 0 0 1 144.6235 233.9863)" fill="#281E17" font-family="'OpenSans-Bold'" font-size="24.9378">F</text>
		<text transform="matrix(1.0017 0 0 1 158.437 233.9863)" fill="#281E17" font-family="'OpenSans-Bold'" font-size="24.9378">EDER</text>
		<text transform="matrix(1.0017 0 0 1 221.4038 233.9863)" fill="#281E17" font-family="'OpenSans-Bold'" font-size="24.9378">A</text>
		<text transform="matrix(1.0017 0 0 1 238.7524 233.9863)" fill="#281E17" font-family="'OpenSans-Bold'" font-size="24.9378">L</text>
	</g>
</g>
</svg>
